{
	"asset":{
		"generator":"Khronos glTF Blender I/O v4.4.56",
		"version":"2.0"
	},
	"scene":0,
	"scenes":[
		{
			"name":"Scene",
			"nodes":[
				0
			]
		}
	],
	"nodes":[
		{
			"mesh":0,
			"name":"Barrel"
		}
	],
	"materials":[
		{
			"name":"Tank",
			"pbrMetallicRoughness":{
				"baseColorTexture":{
					"index":0
				},
				"metallicFactor":0
			}
		}
	],
	"meshes":[
		{
			"name":"Cylinder.003",
			"primitives":[
				{
					"attributes":{
						"POSITION":0,
						"NORMAL":1,
						"TEXCOORD_0":2,
						"TEXCOORD_1":3,
						"TEXCOORD_2":4,
						"TEXCOORD_3":5
					},
					"indices":6,
					"material":0
				}
			]
		}
	],
	"textures":[
		{
			"sampler":0,
			"source":0
		}
	],
	"images":[
		{
			"mimeType":"image/png",
			"name":"MiniWar-Texture-512",
			"uri":"Texture/MiniWar-Texture-512.png"
		}
	],
	"accessors":[
		{
			"bufferView":0,
			"componentType":5126,
			"count":245,
			"max":[
				0.1442624032497406,
				0.32818448543548584,
				0.45095327496528625
			],
			"min":[
				-0.1442624032497406,
				0.16641966998577118,
				-0.1436985582113266
			],
			"type":"VEC3"
		},
		{
			"bufferView":1,
			"componentType":5126,
			"count":245,
			"type":"VEC3"
		},
		{
			"bufferView":2,
			"componentType":5126,
			"count":245,
			"type":"VEC2"
		},
		{
			"bufferView":3,
			"componentType":5126,
			"count":245,
			"type":"VEC2"
		},
		{
			"bufferView":4,
			"componentType":5126,
			"count":245,
			"type":"VEC2"
		},
		{
			"bufferView":5,
			"componentType":5126,
			"count":245,
			"type":"VEC2"
		},
		{
			"bufferView":6,
			"componentType":5123,
			"count":738,
			"type":"SCALAR"
		}
	],
	"bufferViews":[
		{
			"buffer":0,
			"byteLength":2940,
			"byteOffset":0,
			"target":34962
		},
		{
			"buffer":0,
			"byteLength":2940,
			"byteOffset":2940,
			"target":34962
		},
		{
			"buffer":0,
			"byteLength":1960,
			"byteOffset":5880,
			"target":34962
		},
		{
			"buffer":0,
			"byteLength":1960,
			"byteOffset":7840,
			"target":34962
		},
		{
			"buffer":0,
			"byteLength":1960,
			"byteOffset":9800,
			"target":34962
		},
		{
			"buffer":0,
			"byteLength":1960,
			"byteOffset":11760,
			"target":34962
		},
		{
			"buffer":0,
			"byteLength":1476,
			"byteOffset":13720,
			"target":34963
		}
	],
	"samplers":[
		{
			"magFilter":9729,
			"minFilter":9987
		}
	],
	"buffers":[
		{
			"byteLength":15196,
			"uri":"Barrel.bin"
		}
	]
}
