{
	"asset":{
		"generator":"Khronos glTF Blender I/O v4.4.56",
		"version":"2.0"
	},
	"scene":0,
	"scenes":[
		{
			"name":"Scene",
			"nodes":[
				0
			]
		}
	],
	"nodes":[
		{
			"mesh":0,
			"name":"Base"
		}
	],
	"materials":[
		{
			"name":"Tank",
			"pbrMetallicRoughness":{
				"baseColorTexture":{
					"index":0
				},
				"metallicFactor":0
			}
		}
	],
	"meshes":[
		{
			"name":"Cylinder.002",
			"primitives":[
				{
					"attributes":{
						"POSITION":0,
						"NORMAL":1,
						"TEXCOORD_0":2,
						"TEXCOORD_1":3,
						"TEXCOORD_2":4,
						"TEXCOORD_3":5
					},
					"indices":6,
					"material":0
				}
			]
		}
	],
	"textures":[
		{
			"sampler":0,
			"source":0
		}
	],
	"images":[
		{
			"mimeType":"image/png",
			"name":"MiniWar-Texture-512",
			"uri":"Texture/MiniWar-Texture-512.png"
		}
	],
	"accessors":[
		{
			"bufferView":0,
			"componentType":5126,
			"count":902,
			"max":[
				0.2358418107032776,
				0.18785294890403748,
				0.2715117633342743
			],
			"min":[
				-0.2358418107032776,
				-0.00015961690223775804,
				-0.27151182293891907
			],
			"type":"VEC3"
		},
		{
			"bufferView":1,
			"componentType":5126,
			"count":902,
			"type":"VEC3"
		},
		{
			"bufferView":2,
			"componentType":5126,
			"count":902,
			"type":"VEC2"
		},
		{
			"bufferView":3,
			"componentType":5126,
			"count":902,
			"type":"VEC2"
		},
		{
			"bufferView":4,
			"componentType":5126,
			"count":902,
			"type":"VEC2"
		},
		{
			"bufferView":5,
			"componentType":5126,
			"count":902,
			"type":"VEC2"
		},
		{
			"bufferView":6,
			"componentType":5123,
			"count":2508,
			"type":"SCALAR"
		}
	],
	"bufferViews":[
		{
			"buffer":0,
			"byteLength":10824,
			"byteOffset":0,
			"target":34962
		},
		{
			"buffer":0,
			"byteLength":10824,
			"byteOffset":10824,
			"target":34962
		},
		{
			"buffer":0,
			"byteLength":7216,
			"byteOffset":21648,
			"target":34962
		},
		{
			"buffer":0,
			"byteLength":7216,
			"byteOffset":28864,
			"target":34962
		},
		{
			"buffer":0,
			"byteLength":7216,
			"byteOffset":36080,
			"target":34962
		},
		{
			"buffer":0,
			"byteLength":7216,
			"byteOffset":43296,
			"target":34962
		},
		{
			"buffer":0,
			"byteLength":5016,
			"byteOffset":50512,
			"target":34963
		}
	],
	"samplers":[
		{
			"magFilter":9729,
			"minFilter":9987
		}
	],
	"buffers":[
		{
			"byteLength":55528,
			"uri":"Base.bin"
		}
	]
}
