{
	"asset":{
		"generator":"Khronos glTF Blender I/O v4.4.56",
		"version":"2.0"
	},
	"scene":0,
	"scenes":[
		{
			"name":"Scene",
			"nodes":[
				4
			]
		}
	],
	"nodes":[
		{
			"name":"Barrel",
			"scale":[
				1,
				0.9999999403953552,
				1
			],
			"translation":[
				0,
				0.1420130580663681,
				0
			]
		},
		{
			"children":[
				0
			],
			"name":"Base",
			"translation":[
				0,
				0.0037314968649297953,
				0
			]
		},
		{
			"mesh":0,
			"name":"Barrel.001",
			"skin":0
		},
		{
			"mesh":1,
			"name":"Base.001",
			"skin":0
		},
		{
			"children":[
				2,
				3,
				1
			],
			"name":"ArmTank"
		}
	],
	"materials":[
		{
			"name":"Tank",
			"pbrMetallicRoughness":{
				"baseColorTexture":{
					"index":0
				},
				"metallicFactor":0
			}
		}
	],
	"meshes":[
		{
			"name":"Cylinder.009",
			"primitives":[
				{
					"attributes":{
						"POSITION":0,
						"NORMAL":1,
						"TEXCOORD_0":2,
						"TEXCOORD_1":3,
						"TEXCOORD_2":4,
						"TEXCOORD_3":5,
						"JOINTS_0":6,
						"WEIGHTS_0":7
					},
					"indices":8,
					"material":0
				}
			]
		},
		{
			"name":"Cylinder.008",
			"primitives":[
				{
					"attributes":{
						"POSITION":10,
						"NORMAL":11,
						"TEXCOORD_0":12,
						"TEXCOORD_1":13,
						"TEXCOORD_2":14,
						"TEXCOORD_3":15,
						"JOINTS_0":16,
						"WEIGHTS_0":17
					},
					"indices":18,
					"material":0
				}
			]
		}
	],
	"textures":[
		{
			"sampler":0,
			"source":0
		}
	],
	"images":[
		{
			"mimeType":"image/png",
			"name":"MiniWar-Texture-512",
			"uri":"Texture/MiniWar-Texture-512.png"
		}
	],
	"skins":[
		{
			"inverseBindMatrices":9,
			"joints":[
				1,
				0
			],
			"name":"ArmTank"
		}
	],
	"accessors":[
		{
			"bufferView":0,
			"componentType":5126,
			"count":245,
			"max":[
				0.1442624032497406,
				0.32818448543548584,
				0.45095327496528625
			],
			"min":[
				-0.1442624032497406,
				0.16641966998577118,
				-0.1436985582113266
			],
			"type":"VEC3"
		},
		{
			"bufferView":1,
			"componentType":5126,
			"count":245,
			"type":"VEC3"
		},
		{
			"bufferView":2,
			"componentType":5126,
			"count":245,
			"type":"VEC2"
		},
		{
			"bufferView":3,
			"componentType":5126,
			"count":245,
			"type":"VEC2"
		},
		{
			"bufferView":4,
			"componentType":5126,
			"count":245,
			"type":"VEC2"
		},
		{
			"bufferView":5,
			"componentType":5126,
			"count":245,
			"type":"VEC2"
		},
		{
			"bufferView":6,
			"componentType":5121,
			"count":245,
			"type":"VEC4"
		},
		{
			"bufferView":7,
			"componentType":5126,
			"count":245,
			"type":"VEC4"
		},
		{
			"bufferView":8,
			"componentType":5123,
			"count":738,
			"type":"SCALAR"
		},
		{
			"bufferView":9,
			"componentType":5126,
			"count":2,
			"type":"MAT4"
		},
		{
			"bufferView":10,
			"componentType":5126,
			"count":902,
			"max":[
				0.2358418107032776,
				0.18785294890403748,
				0.2715117633342743
			],
			"min":[
				-0.2358418107032776,
				-0.00015961690223775804,
				-0.27151182293891907
			],
			"type":"VEC3"
		},
		{
			"bufferView":11,
			"componentType":5126,
			"count":902,
			"type":"VEC3"
		},
		{
			"bufferView":12,
			"componentType":5126,
			"count":902,
			"type":"VEC2"
		},
		{
			"bufferView":13,
			"componentType":5126,
			"count":902,
			"type":"VEC2"
		},
		{
			"bufferView":14,
			"componentType":5126,
			"count":902,
			"type":"VEC2"
		},
		{
			"bufferView":15,
			"componentType":5126,
			"count":902,
			"type":"VEC2"
		},
		{
			"bufferView":16,
			"componentType":5121,
			"count":902,
			"type":"VEC4"
		},
		{
			"bufferView":17,
			"componentType":5126,
			"count":902,
			"type":"VEC4"
		},
		{
			"bufferView":18,
			"componentType":5123,
			"count":2508,
			"type":"SCALAR"
		}
	],
	"bufferViews":[
		{
			"buffer":0,
			"byteLength":2940,
			"byteOffset":0,
			"target":34962
		},
		{
			"buffer":0,
			"byteLength":2940,
			"byteOffset":2940,
			"target":34962
		},
		{
			"buffer":0,
			"byteLength":1960,
			"byteOffset":5880,
			"target":34962
		},
		{
			"buffer":0,
			"byteLength":1960,
			"byteOffset":7840,
			"target":34962
		},
		{
			"buffer":0,
			"byteLength":1960,
			"byteOffset":9800,
			"target":34962
		},
		{
			"buffer":0,
			"byteLength":1960,
			"byteOffset":11760,
			"target":34962
		},
		{
			"buffer":0,
			"byteLength":980,
			"byteOffset":13720,
			"target":34962
		},
		{
			"buffer":0,
			"byteLength":3920,
			"byteOffset":14700,
			"target":34962
		},
		{
			"buffer":0,
			"byteLength":1476,
			"byteOffset":18620,
			"target":34963
		},
		{
			"buffer":0,
			"byteLength":128,
			"byteOffset":20096
		},
		{
			"buffer":0,
			"byteLength":10824,
			"byteOffset":20224,
			"target":34962
		},
		{
			"buffer":0,
			"byteLength":10824,
			"byteOffset":31048,
			"target":34962
		},
		{
			"buffer":0,
			"byteLength":7216,
			"byteOffset":41872,
			"target":34962
		},
		{
			"buffer":0,
			"byteLength":7216,
			"byteOffset":49088,
			"target":34962
		},
		{
			"buffer":0,
			"byteLength":7216,
			"byteOffset":56304,
			"target":34962
		},
		{
			"buffer":0,
			"byteLength":7216,
			"byteOffset":63520,
			"target":34962
		},
		{
			"buffer":0,
			"byteLength":3608,
			"byteOffset":70736,
			"target":34962
		},
		{
			"buffer":0,
			"byteLength":14432,
			"byteOffset":74344,
			"target":34962
		},
		{
			"buffer":0,
			"byteLength":5016,
			"byteOffset":88776,
			"target":34963
		}
	],
	"samplers":[
		{
			"magFilter":9729,
			"minFilter":9987
		}
	],
	"buffers":[
		{
			"byteLength":93792,
			"uri":"ArmTank.bin"
		}
	]
}
